<svg xmlns="http://www.w3.org/2000/svg" viewBox="0 0 400 120">
  <!-- Concept 4: Hi-C contact map inspired -->
  
  <!-- Hi-C heatmap grid -->
  <g transform="translate(10, 15)">
    <rect x="0" y="0" width="80" height="80" rx="6" fill="#faf6f2" stroke="#e0d6cc" stroke-width="1"/>
    <!-- Diagonal pattern (TADs) -->
    <rect x="4" y="4" width="14" height="14" fill="#c94c4c"/>
    <rect x="18" y="4" width="14" height="14" fill="#f5ddd5"/>
    <rect x="32" y="4" width="14" height="14" fill="#e8a090"/>
    <rect x="46" y="4" width="14" height="14" fill="#f5ddd5"/>
    <rect x="60" y="4" width="14" height="14" fill="#f0c4b8"/>
    
    <rect x="4" y="18" width="14" height="14" fill="#f5ddd5"/>
    <rect x="18" y="18" width="14" height="14" fill="#d97050"/>
    <rect x="32" y="18" width="14" height="14" fill="#f5ddd5"/>
    <rect x="46" y="18" width="14" height="14" fill="#e8a090"/>
    <rect x="60" y="18" width="14" height="14" fill="#f5ddd5"/>
    
    <rect x="4" y="32" width="14" height="14" fill="#e0a090"/>
    <rect x="18" y="32" width="14" height="14" fill="#f5ddd5"/>
    <rect x="32" y="32" width="14" height="14" fill="#c94c4c"/>
    <rect x="46" y="32" width="14" height="14" fill="#f5ddd5"/>
    <rect x="60" y="32" width="14" height="14" fill="#d08070"/>
    
    <rect x="4" y="46" width="14" height="14" fill="#f5ddd5"/>
    <rect x="18" y="46" width="14" height="14" fill="#e8a090"/>
    <rect x="32" y="46" width="14" height="14" fill="#f5ddd5"/>
    <rect x="46" y="46" width="14" height="14" fill="#d97050"/>
    <rect x="60" y="46" width="14" height="14" fill="#f5ddd5"/>
    
    <rect x="4" y="60" width="14" height="14" fill="#f0c4b8"/>
    <rect x="18" y="60" width="14" height="14" fill="#f5ddd5"/>
    <rect x="32" y="60" width="14" height="14" fill="#d08070"/>
    <rect x="46" y="60" width="14" height="14" fill="#f5ddd5"/>
    <rect x="60" y="60" width="14" height="14" fill="#c94c4c"/>
  </g>
  
  <!-- SCRIBE text -->
  <text x="110" y="65" font-family="Helvetica Neue, Arial, sans-serif" font-size="40" font-weight="500" fill="#c94c4c">SCRIBE</text>
  <text x="112" y="88" font-family="Helvetica Neue, Arial, sans-serif" font-size="9" fill="#b87060" letter-spacing="1.8">CHROMATIN SEQUENCE TO STRUCTURE</text>
</svg>